# AST/ASF file generated using VICON BodyLanguage
# -----------------------------------------------
:version 1.10
:name VICON
:units
  mass 1.0
  length 0.45
  angle deg
:documentation
   .ast/.asf automatically generated from VICON data using
   VICON BodyBuilder and BodyLanguage model FoxedUp or BRILLIANT.MOD
:root
   order TX TY TZ RX RY RZ
   axis XYZ
   position 0 0 0  
   orientation 0 0 0 
:bonedata
  begin
     id 1 
     name lhipjoint
     direction 0.611804 -0.747784 0.257906 
     length 2.29243 
     axis 0 0 0  XYZ
  end
  begin
     id 2 
     name lfemur
     direction 0.34202 -0.939693 0  
     length 7.31159  
     axis 0 0 20  XYZ
    dof rx ry rz
    limits (-160.0 20.0)
           (-70.0 70.0)
           (-60.0 70.0)
  end
  begin
     id 3 
     name ltibia
     direction 0.34202 -0.939693 0   
     length 7.33391   
     axis 0 0 20   XYZ
    dof rx
    limits (-10.0 170.0)
  end
  begin
     id 4 
     name lfoot
     direction 0.122263 -0.335914 0.933924   
     length 1.76083   
     axis -90 7.62852e-016 20   XYZ
    dof rx rz
    limits (-45.0 90.0)
           (-70.0 20.0)
  end
  begin
     id 5 
     name ltoes
     direction 1.53533e-011 -4.2177e-011 1   
     length 0.879206   
     axis -90 7.62852e-016 20   XYZ
    dof rx
    limits (-90.0 20.0)
  end
  begin
     id 6 
     name rhipjoint
     direction -0.646469 -0.721248 0.248754   
     length 2.37677  
     axis 0 0 0  XYZ 
  end
  begin
     id 7 
     name rfemur
     direction -0.34202 -0.939693 0   
     length 7.18623   
     axis 0 0 -20   XYZ
    dof rx ry rz
    limits (-160.0 20.0)
           (-70.0 70.0)
           (-70.0 60.0)
  end
  begin
     id 8 
     name rtibia
     direction -0.34202 -0.939693 0   
     length 7.36567   
     axis 0 0 -20   XYZ
    dof rx
    limits (-10.0 170.0)
 end
 begin
     id 9 
     name rfoot
     direction -0.126681 -0.348054 0.928876   
     length 1.71902  
     axis -90 -7.62852e-016 -20   XYZ
    dof rx rz
    limits (-45.0 90.0)
           (-20.0 70.0)
  end
  begin
     id 10 
     name rtoes
     direction -1.53551e-011 -4.21898e-011 1   
     length 0.857792   
     axis -90 -7.62852e-016 -20   XYZ
    dof rx
    limits (-90.0 20.0)
  end
  begin
     id 11 
     name lowerback
     direction 0.0106509 0.999778 0.0181844   
     length 2.07668   
     axis 0 0 0   XYZ
    dof rx ry rz
    limits (-20.0 45.0)
           (-30.0 30.0)
           (-30.0 30.0)
  end
  begin
     id 12 
     name upperback
     direction -0.00456018 0.999989 -0.000590935   
     length 2.08011   
     axis 0 0 0   XYZ
    dof rx ry rz
    limits (-20.0 45.0)
           (-30.0 30.0)
           (-30.0 30.0)
  end
  begin
     id 13 
     name thorax
     direction -0.00910382 0.999916 -0.00923765   
     length 2.07397   
     axis 0 0 0   XYZ
    dof rx ry rz
    limits (-20.0 45.0)
           (-30.0 30.0)
           (-30.0 30.0)
  end
  begin
     id 14 
     name lowerneck
     direction 0.00171967 0.99778 0.0665733   
     length 1.67556   
     axis 0 0 0   XYZ
    dof rx ry rz
    limits (-20.0 45.0)
           (-30.0 30.0)
           (-30.0 30.0)
  end
  begin
     id 15 
     name upperneck
     direction -0.0143166 0.991302 -0.130828   
     length 1.68462   
     axis 0 0 0   XYZ
    dof rx ry rz
    limits (-20.0 45.0)
           (-30.0 30.0)
           (-30.0 30.0)
  end
  begin
     id 16
     name head
     direction -0.00606378 0.998665 -0.0512995  
     length 1.69269  
     axis 0 0 0   XYZ
    dof rx ry rz
    limits (-20.0 45.0)
           (-30.0 30.0)
           (-30.0 30.0)
  end
  begin
     id 17 
     name lclavicle
     direction 0.9638 0.179341 0.197297  
     length 4.12888  
     axis 0 0 0   XYZ
    dof ry rz
    limits (-20.0 10.0)
           (0.0 20.0)
  end
  begin
     id 18 
     name lhumerus
     direction 1 -4.48972e-011 -2.47351e-027   
     length 5.01834   
     axis -180 -30 -90   XYZ
    dof rx ry rz
    limits (-60.0 90.0)
           (-90.0 90.0)
           (-90.0 90.0)
  end
  begin
     id 19
     name lradius
     direction 1 -4.48965e-011 1.51591e-026   
     length 3.4869   
     axis -180 -30 -90   XYZ
    dof rx
    limits (-10.0 170.0)
  end
  begin
     id 20
     name lwrist
     direction 1 -4.48957e-011 2.70032e-026   
     length 1.74345   
     axis -1.81515e-014 90 90   XYZ
    dof ry
    limits (-180.0 0.0)
 end
  begin
     id 21 
     name lhand
     direction 1 -4.48951e-011 5.40064e-026   
     length 0.76799   
     axis -3.44607e-014 90 90   XYZ
    dof rx rz
    limits (-90.0 90.0)
           (-45.0 45.0)
  end
  begin
     id 22 
     name lfingers
     direction 1 -4.48971e-011 1.08013e-025   
     length 0.619174   
     axis -6.89214e-014 90 90   XYZ
    dof rx
    limits (0.0 90.0)
  end
  begin
     id 23
     name lthumb
     direction 0.707107 -6.34931e-011 0.707107   
     length 0.889013   
     axis -90 45 2.85299e-015   XYZ
    dof rx rz
    limits (-45.0 45.0)
           (-45.0 45.0)
  end
  begin
     id 24 
     name rclavicle
     direction -0.961409 0.252588 0.109054   
     length 4.04305  
     axis 0 0 0   XYZ 
    dof ry rz
    limits (-10.0 20.0)
           (-20.0 0.0)
  end
  begin
     id 25 
     name rhumerus
     direction -1 -4.4897e-011 1.33872e-017  
     length 4.70164   
     axis -180 30 90   XYZ
    dof rx ry rz
    limits (-90.0 60.0)
           (-90.0 90.0)
           (-90.0 90.0)
  end
  begin
     id 26 
     name rradius
     direction -1 -4.48954e-011 1.83844e-026   
     length 3.49911   
     axis -180 30 90   XYZ
    dof rx
    limits (-10.0 170.0)
  end
  begin
     id 27 
     name rwrist
     direction -1 -4.49008e-011 2.70032e-026   
     length 1.74955   
     axis -1.81515e-014 -90 -90   XYZ
    dof ry
    limits (-180.0 0.0)
  end
  begin
     id 28
     name rhand
     direction -1 -4.48916e-011 5.40064e-026   
     length 0.739335   
     axis -3.44607e-014 -90 -90   XYZ
    dof rx rz
    limits (-90.0 90.0)
           (-45.0 45.0)
  end
  begin
     id 29
     name rfingers
     direction -1 -4.48987e-011 1.08013e-025   
     length 0.596071   
     axis -6.89214e-014 -90 -90   XYZ
    dof rx
    limits (0.0 90.0)
  end
  begin
     id 30
     name rthumb
     direction -0.707107 -6.34935e-011 0.707107   
     length 0.855843   
     axis -90 -45 -2.85299e-015   XYZ
    dof rx rz
    limits (-45.0 45.0)
           (-45.0 45.0)
  end
:hierarchy
  begin
    root lhipjoint rhipjoint lowerback
    lhipjoint lfemur
    lfemur ltibia
    ltibia lfoot
    lfoot ltoes
    rhipjoint rfemur
    rfemur rtibia
    rtibia rfoot
    rfoot rtoes
    lowerback upperback
    upperback thorax
    thorax lowerneck lclavicle rclavicle
    lowerneck upperneck
    upperneck head
    lclavicle lhumerus
    lhumerus lradius
    lradius lwrist
    lwrist lhand lthumb
    lhand lfingers
    rclavicle rhumerus
    rhumerus rradius
    rradius rwrist
    rwrist rhand rthumb
    rhand rfingers
  end

#!OML:ASF I:\salsa\salsa 7_09\Patient 1\Session 1\dancermale.ASF
:FULLY-SPECIFIED
:DEGREES
525
root 2.89051 16.7713 1.88003 183.813 79.5048 175.433
lowerback -2.61624 1.68506 0.180498
upperback -1.04011 2.278 -1.9246
thorax 0.485097 1.14688 -2.00391
lowerneck -7.65559 -4.25903 -0.918247
upperneck 12.3777 -5.6586 0.836105
head 5.02686 -2.7207 0.039564
rclavicle -1.16538e-014 -4.37326e-015
rhumerus -20.5941 -8.74425 -61.596
rradius 82.4191
rwrist -18.0228
rhand -21.4381 -15.9721
rfingers 7.12502
rthumb 4.95134 -45.8943
lclavicle -1.16538e-014 -4.37326e-015
lhumerus -23.2119 -21.1594 98.7228
lradius 76.3743
lwrist 61.4947
lhand -10.4461 56.5575
lfingers 7.12502
lthumb 15.554 85.952
rfemur -14.6505 -7.78103 22.3985
rtibia 45.0282
rfoot -21.5704 -12.2776
rtoes -6.30905
lfemur -36.4396 -1.17094 -22.7601
ltibia 20.9705
lfoot 3.70907 -4.50607
ltoes -10.7357
526
root 2.72812 16.8201 1.92184 187.163 79.4523 178.228
lowerback -2.91414 1.98202 0.619801
upperback -1.00471 2.66237 -1.86713
thorax 0.719078 1.3396 -2.16628
lowerneck -7.72192 -4.58169 -0.999561
upperneck 12.0322 -6.11495 1.0531
head 4.94487 -2.93945 0.0914687
rclavicle 3.58806e-014 -3.97569e-015
rhumerus -18.8442 -10.1926 -59.5588
rradius 82.2759
rwrist -17.7838
rhand -20.8869 -16.3954
rfingers 7.12502
rthumb 5.48353 -46.3044
lclavicle 3.58806e-014 -3.97569e-015
lhumerus -24.8616 -23.2427 97.9566
lradius 78.551
lwrist 62.2653
lhand -9.27784 56.8452
lfingers 7.12502
lthumb 16.679 86.1486
rfemur -14.2898 -7.4119 23.3196
rtibia 41.9384
rfoot -22.7891 -13.138
rtoes -4.8082
lfemur -37.3502 -1.53024 -21.6757
ltibia 20.685
lfoot 3.80985 -3.69525
ltoes -11.7203
527
root 2.54277 16.8525 1.95635 188.62 78.7457 180.292
lowerback -1.7483 2.06388 1.15389
upperback -0.693427 2.75488 -1.79746
thorax 0.411403 1.38241 -2.42846
lowerneck -7.71348 -4.91691 -1.10245
upperneck 11.6527 -6.59269 1.3486
head 4.84505 -3.16552 0.171943
rclavicle 4.32357e-014 -9.93923e-015
rhumerus -17.0065 -11.5018 -57.5231
rradius 81.93
rwrist -17.6616
rhand -20.6166 -16.7812
rfingers 7.12502
rthumb 5.7445 -46.6834
lclavicle 4.32357e-014 -9.93923e-015
lhumerus -26.4357 -25.3514 96.9669
lradius 80.7792
lwrist 62.8238
lhand -9.32332 57.606
lfingers 7.12502
lthumb 16.6352 86.9131
rfemur -12.7821 -7.44188 23.8713
rtibia 38.9978
rfoot -23.5209 -13.945
rtoes -2.88432
lfemur -37.3181 -2.10966 -21.118
ltibia 21.4672
lfoot 2.77962 -3.47355
ltoes -12.1798
528
root 2.39803 16.8968 1.99101 188.876 79.0239 180.245
lowerback -2.07335 2.48234 1.00444
upperback -0.506966 3.31767 -1.88193
thorax 0.809668 1.66895 -2.39633
lowerneck -7.62539 -5.24439 -1.31064
upperneck 11.3195 -7.07718 1.9176
head 4.76233 -3.38191 0.353702
rclavicle -3.60297e-014 1.90833e-014
rhumerus -14.989 -13.1133 -55.6973
rradius 81.3158
rwrist -17.3055
rhand -20.1013 -17.2736
rfingers 7.12502
rthumb 6.24203 -47.1616
lclavicle -3.60297e-014 1.90833e-014
lhumerus -27.7926 -27.5012 95.5876
lradius 82.88
lwrist 63.2062
lhand -8.95237 58.1544
lfingers 7.12502
lthumb 16.9923 87.4312
rfemur -12.5294 -6.23431 24.1913
rtibia 36.7973
rfoot -24.0104 -14.6533
rtoes -1.18357
lfemur -38.039 -1.87157 -21.0502
ltibia 22.8294
lfoot 0.643948 -3.95112
ltoes -11.0695
529
root 2.27022 16.9441 2.03432 188.673 79.1518 179.744
lowerback -2.60083 2.84622 0.695391
upperback -0.267013 3.81686 -2.00589
thorax 1.36407 1.92386 -2.29836
lowerneck -7.48053 -5.60215 -1.55928
upperneck 10.9388 -7.60648 2.59572
head 4.66637 -3.61741 0.574107
rclavicle -7.2954e-014 2.94201e-014
rhumerus -12.8049 -14.9277 -54.3134
rradius 80.6101
rwrist -16.9989
rhand -18.3832 -16.9506
rfingers 7.12502
rthumb 7.90054 -46.7829
lclavicle -7.2954e-014 2.94201e-014
lhumerus -28.8351 -29.5609 93.6471
lradius 84.9494
lwrist 63.5702
lhand -8.43699 58.9918
lfingers 7.12502
lthumb 17.4883 88.2252
rfemur -12.4246 -4.65787 24.5214
rtibia 35.0279
rfoot -24.3788 -15.6186
rtoes 1.23994
lfemur -38.7806 -1.93645 -21.1385
ltibia 25.3063
lfoot -1.88515 -3.5827
ltoes -13.702
530
root 2.15539 16.9935 2.08018 190.26 78.7707 180.797
lowerback -3.4856 3.06341 0.702903
upperback -0.106024 4.11294 -2.05585
thorax 2.04263 2.07706 -2.28461
lowerneck -7.43856 -6.00906 -1.6627
upperneck 10.6924 -8.20087 3.12867
head 4.62356 -3.88546 0.717616
rclavicle -2.20651e-014 2.06736e-014
rhumerus -10.7265 -16.5882 -53.0294
rradius 79.4531
rwrist -16.5239
rhand -19.1279 -18.3379
rfingers 7.12502
rthumb 7.18168 -48.196
lclavicle -2.20651e-014 2.06736e-014
lhumerus -29.6803 -31.3347 91.2342
lradius 87.1676
lwrist 64.0636
lhand -7.66556 60.424
lfingers 7.12502
lthumb 18.2306 89.5897
rfemur -12.6792 -3.30995 25.2758
rtibia 33.5289
rfoot -24.5325 -16.931
rtoes 2.98412
lfemur -39.8248 -3.01146 -20.5066
ltibia 28.6827
lfoot -3.54544 -1.30666
ltoes -11.4727
531
root 2.00327 17.0161 2.08525 189.796 78.2998 179.919
lowerback -3.70147 3.23676 0.998349
upperback -0.0662553 4.34348 -2.34608
thorax 2.26016 2.2005 -2.7192
lowerneck -7.44012 -6.39496 -1.68012
upperneck 10.6477 -8.76866 3.57304
head 4.64544 -4.13759 0.81727
rclavicle -3.06625e-014 2.54444e-014
rhumerus -8.83167 -17.7961 -51.775
rradius 78.2368
rwrist -16.6132
rhand -19.2358 -18.439
rfingers 7.12502
rthumb 7.07754 -48.3006
lclavicle -3.06625e-014 2.54444e-014
lhumerus -30.4605 -32.7957 88.5377
lradius 89.5824
lwrist 64.6571
lhand -6.66386 61.8492
lfingers 7.12502
lthumb 19.1941 269.078
rfemur -13.2357 -3.0224 25.2512
rtibia 32.6803
rfoot -24.5048 -17.7309
rtoes 3.158
lfemur -41.0542 -4.70902 -20.4781
ltibia 32.7774
lfoot -4.61028 1.22568
ltoes -11.1998
532
root 1.74199 17.0227 2.17299 190.055 75.6043 177.703
lowerback -4.22837 2.58387 0.386754
upperback -0.979068 3.50569 -2.52017
thorax 1.54273 1.77318 -2.60871
lowerneck -7.38099 -6.74662 -1.63861
upperneck 10.7087 -9.2741 3.80044
head 4.6773 -4.36808 0.846077
rclavicle -7.35503e-015 -2.10712e-014
rhumerus -6.95781 -18.9371 -50.5779
rradius 76.8632
rwrist -16.0868
rhand -18.9717 -18.5733
rfingers 7.12502
rthumb 7.33243 -48.4262
lclavicle -7.35503e-015 -2.10712e-014
lhumerus -31.0818 -34.1329 85.6046
lradius 91.6483
lwrist 65.2588
lhand -5.7777 62.6496
lfingers 7.12502
lthumb 20.046 268.364
rfemur -16.4716 -3.89962 25.6965
rtibia 32.1626
rfoot -24.4606 -19.2184
rtoes 4.17989
lfemur -45.9128 -6.87074 -20.7121
ltibia 39.0619
lfoot -5.77279 1.60844
ltoes -8.7674
533
root 1.76568 17.0684 2.09392 191.991 77.9736 182.043
lowerback -3.89906 3.82044 1.8423
upperback 0.0532196 5.08852 -2.46838
thorax 2.62164 2.58802 -3.24656
lowerneck -7.27238 -7.10469 -1.60427
upperneck 10.8495 -9.76678 3.83333
head 4.7164 -4.60317 0.818281
rclavicle -4.50247e-014 -7.95139e-016
rhumerus -5.30828 -19.7268 -49.1915
rradius 75.6737
rwrist -15.7306
rhand -19.1265 -18.7535
rfingers 7.12502
rthumb 7.18304 -48.6116
lclavicle -4.50247e-014 -7.95139e-016
lhumerus -31.6039 -35.2348 82.5244
lradius 93.7634
lwrist 65.8585
lhand -5.08554 63.6179
lfingers 7.12502
lthumb 20.7112 267.467
rfemur -12.8555 -2.4451 25.7751
rtibia 30.1483
rfoot -23.9243 -18.1698
rtoes 3.06611
lfemur -42.3816 -6.60178 -19.7416
ltibia 41.632
lfoot -5.731 4.63874
ltoes -6.78207
534
root 1.65144 17.0913 2.0933 194.726 77.8429 184.362
lowerback -4.36124 4.18803 2.31648
upperback -0.0864151 5.54398 -2.33221
thorax 2.80111 2.81947 -3.30655
lowerneck -7.08136 -7.45212 -1.6795
upperneck 10.9146 -10.2373 3.92989
head 4.72682 -4.83065 0.832627
rclavicle 1.70607e-013 -3.73715e-014
rhumerus -3.84995 -20.3503 -47.6567
rradius 74.8011
rwrist -15.5911
rhand -19.4427 -19.2276
rfingers 7.12502
rthumb 6.87785 -49.0959
lclavicle 1.70607e-013 -3.73715e-014
lhumerus -31.8968 -36.0925 79.2335
lradius 95.825
lwrist 66.4244
lhand -4.26779 64.6989
lfingers 7.12502
lthumb 21.4968 266.474
rfemur -13.1319 -2.04274 26.2393
rtibia 28.9545
rfoot -23.3932 -18.0324
rtoes 2.91509
lfemur -43.4084 -7.1952 -18.9663
ltibia 46.3142
lfoot -6.53029 4.99435
ltoes -3.51789
